<svg xmlns="http://www.w3.org/2000/svg" width="162" height="60" viewBox="-224.755 426.297 162 60" enable-background="new -224.755 426.297 162 60"><path fill="#EA5B0F" d="M-91.858 477.741c3.693 2.584 11-1.639 16.318-9.445 5.32-7.806 6.639-16.221 2.946-18.805-3.694-2.584-10.816 1.422-16.134 9.23-5.32 7.805-6.822 16.435-3.13 19.02z"/><path fill="#0055A4" d="M-101.667 477.741c-3.693 2.584-11-1.639-16.318-9.445-5.32-7.806-6.639-16.221-2.946-18.805 3.694-2.584 10.816 1.422 16.135 9.23 5.321 7.805 6.821 16.435 3.129 19.02z"/><ellipse fill="#009DCC" cx="-96.76" cy="442.723" rx="16.968" ry="8.223"/><path fill="#009DCC" d="M-196.16 460.62c-1.127 0-2.7-.272-3.796-1.566-1.062-1.253-1.198-3.155-1.198-4.672 0-1.579.145-3.21 1.198-4.452 1.097-1.295 2.671-1.568 3.798-1.568h.007c1.132.001 2.711.274 3.804 1.567 1.106 1.305 1.198 2.982 1.198 4.452 0 1.692-.145 3.43-1.198 4.672-1.094 1.292-2.672 1.566-3.804 1.566h-.009v.001zm.009-10.455c-1.054 0-1.893.361-2.424 1.045-.613.787-.663 1.902-.663 3.172 0 1.285.051 2.606.663 3.391.533.685 1.372 1.047 2.424 1.047 1.052 0 1.892-.361 2.425-1.047.611-.785.663-2.106.663-3.391 0-1.269-.05-2.385-.663-3.172-.533-.683-1.371-1.045-2.425-1.045zM-184.616 460.628l-.231-.001h-.172c-1.148 0-2.705-.406-3.634-1.545-1.08-1.325-1.17-3.149-1.17-4.755v-4.744c0-.52.418-.942.93-.942s.93.423.93.942v4.747c0 1.241.049 2.629.627 3.404.509.682 1.376 1.089 2.316 1.089 1.121 0 1.949-.087 2.331-.247.107-.045.217-.18.217-.33l.001-8.663c0-.52.418-.942.931-.942s.93.423.93.942l-.002 9.452c0 .421-.261.964-.684 1.108-1.146.429-2.377.485-3.32.485zM-152.369 460.628l-.231-.001h-.172c-1.148 0-2.705-.406-3.634-1.545-1.08-1.325-1.17-3.149-1.17-4.755v-4.744c0-.52.418-.942.93-.942s.93.423.93.942v4.747c0 1.241.048 2.629.627 3.404.509.682 1.376 1.089 2.316 1.089 1.121 0 1.949-.087 2.331-.247.107-.045.218-.18.218-.33l.001-8.663c0-.52.418-.942.93-.942s.93.423.93.942l-.002 9.452c0 .421-.262.964-.684 1.108-1.145.429-2.377.485-3.32.485zM-163.334 465.73c-.637 0-1.288-.085-1.937-.255-.981-.256-1.49-.541-1.861-.749l-.069-.04c-.192-.107-.339-.31-.403-.554-.064-.249-.032-.504.088-.699.199-.325.563-.441.815-.441.113 0 .216.021.3.062.914.446 1.382.609 1.613.667.494.123.983.186 1.454.186.711 0 1.273-.235 1.667-.696.397-.465.599-1.13.599-1.98v-1.533c-.447.445-1.696.926-2.775.926-1.127 0-2.702-.27-3.804-1.554-.995-1.158-1.198-2.602-1.198-4.414 0-1.656.142-3.515 1.198-4.743 1.15-1.341 2.877-1.542 3.804-1.542.694 0 2.483.075 4.078.769.356.166.585.53.585.928v11.166c0 .623-.088 1.218-.262 1.768-.176.556-.439 1.04-.781 1.438-.344.4-.782.72-1.301.952-.511.222-1.12.338-1.81.338zm-.509-15.566c-.742 0-1.766.175-2.424 1.009-.583.738-.663 2.109-.663 3.479 0 1.264.05 2.374.663 3.15.525.666 1.364 1.018 2.424 1.018 1.023 0 1.828-.329 2.171-.656.385-.367.579-.835.579-1.392v-5.831c0-.147-.092-.278-.229-.327-.766-.273-1.756-.45-2.521-.45zM-132.173 460.62c-.493 0-2.195-.064-3.367-.886-.104-.066-.196-.154-.275-.262-.127-.162-.193-.358-.193-.567 0-.503.402-.912.897-.912.15 0 .3.039.431.111l.113.068c.956.543 2.027.585 2.332.585h.033c.301-.002 1.334-.051 2.046-.576.382-.279.638-.82.638-1.345 0-.309-.167-1.352-2.32-1.809-1.249-.261-2.214-.708-2.864-1.327-.64-.608-.965-1.368-.965-2.259 0-.967.358-1.732 1.064-2.274.653-.504 1.727-.804 2.868-.804 1.252 0 2.368.279 3.065.768.322.202.496.605.496.881l.001.012v.019c0 .469-.376.851-.839.851l-.207-.026c-.124-.031-.26-.084-.425-.167-.485-.243-1.589-.474-2.091-.476h-.03c-.327 0-.581.021-.823.067-.225.045-.426.116-.597.211-.164.091-.304.22-.412.381-.104.155-.156.343-.156.559 0 .792.836 1.421 2.292 1.728 1.772.35 3.886 1.27 3.886 3.667 0 .51-.144 1.151-.358 1.596-.208.432-.5.807-.869 1.115-.367.306-.815.543-1.333.706-.805.252-1.434.365-2.038.365zM-207.837 460.619c-.676 0-2.421-.071-3.99-.73-.403-.158-.673-.558-.673-.996l.002-15.091c0-.527.423-.955.943-.955s.943.428.943.955v5.476c.212-.211.615-.436 1.092-.606.557-.2 1.154-.31 1.683-.31 1.13 0 2.709.268 3.804 1.545 1.053 1.226 1.198 2.929 1.198 4.586 0 1.658-.145 3.363-1.198 4.588-1.09 1.272-2.671 1.538-3.804 1.538zm-2.425-2.209c.745.252 1.682.412 2.424.412.744 0 1.768-.175 2.425-1.005.611-.775.662-2.066.662-3.323 0-1.256-.051-2.546-.662-3.321-.526-.667-1.343-1.005-2.425-1.005-.895 0-1.767.258-2.171.643-.385.365-.579.834-.579 1.391v5.872c0 .135.085.254.212.296l.122.04h-.008zM-175.663 465.561c-.112 0-.222-.021-.328-.062-.23-.088-.414-.263-.515-.49-.101-.227-.108-.482-.021-.716l1.778-4.775c-.739-.275-1.222-.811-1.563-1.734l-2.939-7.898c-.172-.479.072-1.013.543-1.19.101-.039.206-.057.314-.057.384 0 .731.244.864.606.825 2.32 2.77 7.758 3.038 8.145.038.055.136.198.268.199.11 0 .21-.065.258-.167l3.076-8.184c.135-.359.481-.6.863-.6.111 0 .219.02.324.061.467.182.705.717.53 1.194l-5.628 15.063c-.134.362-.481.605-.862.605zM-141.737 460.619c-1.131 0-2.708-.268-3.804-1.545-1.04-1.211-1.18-3-1.18-4.59 0-.758.018-1.573.223-2.452.163-.699.393-1.442.957-2.125 1.099-1.332 2.821-1.54 3.75-1.545h.073c.928 0 2.652.201 3.784 1.545.012.012 1.203 1.29 1.203 3.898 0 .55-.441.997-.984.997h-7.089c.011 1.079.073 2.285.642 3.006.526.667 1.343 1.005 2.425 1.005 1.502.035 2.242-.213 2.985-.634l.111-.062.168-.084c.113-.041.217-.06.316-.06.48 0 .869.395.869.88 0 .108-.019.213-.057.313-.082.239-.242.446-.439.571-1.112.778-2.622.882-3.953.882zm-3.02-7.535h6.087c.002-.227-.039-1.539-1.108-2.361-.723-.555-1.56-.555-1.963-.555h-.083c-.531 0-1.223.062-1.859.543-1.007.761-1.079 1.984-1.074 2.373z"/><g fill="#009DCC"><path d="M-156.044 465.85h-.272c-.11 0-.2-.082-.2-.184v-2.756h-.863c-.11 0-.201-.083-.201-.185v-.259c0-.101.09-.183.201-.183h2.402c.111 0 .201.082.201.183v.259c0 .102-.09.185-.201.185h-.867v2.756c0 .102-.09.184-.2.184M-146.632 465.85h-2.165c-.112 0-.201-.081-.201-.184v-3.2c0-.101.09-.183.201-.183h.271c.111 0 .202.082.202.183v2.758h1.692c.111 0 .201.082.201.184v.259c.002.101-.088.183-.201.183M-142.459 465.85h-2.164c-.111 0-.201-.082-.201-.184v-3.2c0-.101.09-.183.201-.183h2.164c.111 0 .202.082.202.183v.259c0 .102-.091.185-.202.185h-1.692v.836h1.412c.11 0 .2.081.2.182v.248c0 .1-.09.182-.2.182h-1.412v.868h1.692c.111 0 .202.082.202.184v.259c.002.099-.089.181-.202.181M-150.804 465.85h-2.166c-.11 0-.2-.082-.2-.184v-3.2c0-.101.09-.183.2-.183h2.166c.111 0 .202.082.202.183v.259c0 .102-.09.185-.202.185h-1.693v.836h1.412c.11 0 .201.081.201.182v.248c0 .1-.09.182-.201.182h-1.412v.868h1.693c.111 0 .202.082.202.184v.259c0 .099-.091.181-.202.181M-128.396 465.85h-.272c-.111 0-.202-.082-.202-.184v-1.621l-.695 1.69c-.033.066-.105.109-.186.109h-.27c-.078 0-.15-.043-.184-.108l-.717-1.707v1.637c0 .102-.091.184-.2.184h-.272c-.11 0-.2-.082-.2-.184v-3.2c0-.101.09-.183.2-.183h.272c.077 0 .148.042.181.106l1.059 2.536 1.031-2.533c.032-.067.104-.109.184-.109h.272c.111 0 .2.082.2.183v3.2c-.001.102-.09.184-.201.184M-134.682 465.897c-.399 0-.773-.138-1.054-.388-.395-.353-.458-.719-.458-1.458s.063-1.105.458-1.458c.265-.24.65-.377 1.054-.377.403 0 .787.137 1.054.377.395.353.458.719.458 1.458s-.063 1.105-.458 1.458c-.28.25-.654.388-1.054.388m0-3.1c-.208 0-.402.07-.546.199-.197.177-.28.361-.28 1.055 0 .69.082.876.28 1.055.136.122.335.191.546.191.212 0 .41-.07.544-.191.197-.178.281-.362.281-1.055 0-.694-.083-.879-.281-1.055-.141-.129-.335-.199-.544-.199M-139.167 465.894c-.403 0-.787-.137-1.054-.377-.395-.352-.458-.72-.458-1.463 0-.739.063-1.105.458-1.458.266-.239.649-.377 1.054-.377s.787.138 1.054.377c.183.162.295.329.362.538.021.055.014.116-.019.161-.032.049-.083.08-.143.089l-.28.045c-.097.016-.187-.034-.221-.114-.04-.13-.101-.221-.207-.316-.144-.129-.337-.2-.546-.2-.208 0-.402.071-.545.199-.197.176-.28.361-.28 1.061 0 .693.082.879.28 1.054.143.128.337.199.545.199.209 0 .403-.071.545-.199.107-.094.168-.186.207-.315.035-.082.128-.13.222-.116l.28.045c.06.009.109.042.143.088.031.046.039.107.019.162-.066.208-.179.375-.362.537-.267.242-.651.38-1.054.38"/></g></svg>